<svg width="148" height="40" viewBox="0 0 148 40" fill="none" xmlns="http://www.w3.org/2000/svg">
<g clip-path="url(#clip0_111_15929)">
<path d="M69.6339 18.823L37.6284 0.182846C37.4277 0.0646194 37.1992 0.00154537 36.9663 2.80377e-05C36.7333 -0.00148929 36.504 0.0586035 36.3019 0.174206L3.49802 18.8178C3.3128 18.9221 3.15548 19.0694 3.03941 19.2473C2.92334 19.4252 2.85196 19.6285 2.83131 19.8398H2.78029V27.7984C2.10626 28.0413 1.53881 28.5127 1.17669 29.1304C0.81456 29.7482 0.68068 30.4732 0.798339 31.1794C0.915998 31.8855 1.27775 32.5281 1.82065 32.9953C2.36355 33.4625 3.05323 33.7248 3.76968 33.7365C4.48614 33.7482 5.18402 33.5085 5.74188 33.0593C6.29975 32.61 6.6823 31.9795 6.82297 31.2776C6.96363 30.5756 6.8535 29.8467 6.51175 29.2174C6.17 28.5882 5.61825 28.0986 4.95251 27.8338V21.959L20.4426 30.7461V34.6778C20.4416 34.8956 20.4848 35.1114 20.5697 35.312C20.6545 35.5127 20.7793 35.694 20.9364 35.845C22.7592 38.8575 30.6033 39.8303 36.02 39.9314C36.154 39.9314 36.2863 39.9375 36.4186 39.9375C36.5509 39.9375 36.6616 39.9375 36.7818 39.9375C36.8484 39.9375 36.9141 39.9375 36.979 39.9375C42.4415 39.9375 51.2955 39.0139 53.0864 35.7267C53.3375 35.4322 53.4749 35.0578 53.4738 34.6709V30.5215L69.6323 21.1219C69.8332 21.0047 69.9999 20.8368 70.1157 20.6352C70.2316 20.4334 70.2925 20.205 70.2925 19.9724C70.2925 19.74 70.2316 19.5115 70.1157 19.3098C69.9999 19.1082 69.8332 18.9403 69.6323 18.823H69.6339ZM47.0073 36.3003C44.2938 36.9992 40.7328 37.3863 36.9833 37.3863C36.9106 37.3863 36.8389 37.3863 36.7671 37.3863C36.7316 37.3863 36.6953 37.3863 36.6599 37.3863H36.6521C36.5526 37.3863 36.4558 37.3863 36.3563 37.3819C36.2811 37.3819 36.205 37.3819 36.1289 37.3819C32.6942 37.3292 29.4653 36.95 26.9627 36.3038C24.0399 35.5478 23.2054 34.7003 23.1155 34.4809C23.1432 34.4126 23.24 34.2865 23.4484 34.1215C23.9154 33.7482 24.9384 33.1806 26.9627 32.6528C29.6763 31.953 33.2372 31.5668 36.9876 31.5668C40.738 31.5668 44.2981 31.953 47.0116 32.6528C48.991 33.166 50.0149 33.7197 50.4948 34.093C50.7222 34.2657 50.8295 34.4057 50.8563 34.4774C50.7603 34.6968 49.9241 35.5444 47.0073 36.3003ZM36.9764 29.0113C32.7279 29.0113 26.4326 29.5686 22.9979 31.3647V22.1811C23.1925 21.9107 24.2206 21.1902 27.121 20.5621C29.8224 19.9772 33.3159 19.6549 36.9565 19.6549C40.597 19.6549 44.0888 19.9772 46.7903 20.5621C49.6896 21.1902 50.7214 21.9107 50.9133 22.1811V31.3387C47.4733 29.5651 41.2136 29.0113 36.9764 29.0113ZM53.4712 27.4433V22.0999C53.4712 17.2394 38.647 17.0994 36.9548 17.0994C35.2625 17.0994 20.4383 17.2394 20.4383 22.0999V27.686L6.84715 19.972L36.9496 2.86621L66.3178 19.972L53.4712 27.4433Z" fill="#4E44B1"/>
<path d="M79.1043 27.1515C77.9919 27.1515 76.9183 27.0159 75.8835 26.7445C74.8617 26.4602 74.0274 26.0984 73.3807 25.659L74.6418 22.8289C75.2497 23.2166 75.9482 23.5397 76.7372 23.7981C77.5392 24.0436 78.3347 24.1664 79.1237 24.1664C79.654 24.1664 80.0808 24.1212 80.4042 24.0307C80.7276 23.9273 80.9604 23.7981 81.1027 23.643C81.2579 23.4751 81.3355 23.2812 81.3355 23.0615C81.3355 22.7513 81.1932 22.5058 80.9086 22.3249C80.6241 22.144 80.2555 21.9954 79.8027 21.8791C79.35 21.7628 78.8456 21.6465 78.2894 21.5302C77.7461 21.4139 77.1964 21.2653 76.6402 21.0844C76.097 20.9034 75.599 20.6708 75.1462 20.3865C74.6935 20.0893 74.3249 19.7081 74.0403 19.2428C73.7558 18.7647 73.6135 18.1638 73.6135 17.4402C73.6135 16.626 73.8334 15.8894 74.2732 15.2304C74.7259 14.5713 75.3985 14.0414 76.2909 13.6408C77.1834 13.2402 78.2958 13.04 79.6281 13.04C80.5206 13.04 81.3938 13.1434 82.2474 13.3501C83.1141 13.544 83.8837 13.8347 84.5563 14.2224L83.3727 17.0719C82.726 16.7229 82.0857 16.4645 81.452 16.2965C80.8181 16.1156 80.2037 16.0251 79.6088 16.0251C79.0784 16.0251 78.6516 16.0833 78.3282 16.1995C78.0049 16.303 77.772 16.4451 77.6297 16.626C77.4874 16.807 77.4163 17.0137 77.4163 17.2463C77.4163 17.5436 77.5521 17.7826 77.8237 17.9635C78.1083 18.1316 78.4769 18.2737 78.9297 18.39C79.3953 18.4934 79.8998 18.6032 80.443 18.7195C80.9992 18.8358 81.549 18.9844 82.0922 19.1653C82.6484 19.3333 83.1528 19.5659 83.6056 19.8631C84.0583 20.1475 84.4204 20.5287 84.692 21.0068C84.9766 21.472 85.119 22.06 85.119 22.7708C85.119 23.559 84.8926 24.2891 84.4399 24.9612C84.0001 25.6202 83.334 26.15 82.4415 26.5506C81.5619 26.9513 80.4495 27.1515 79.1043 27.1515ZM86.8935 26.8802V13.3113H90.7353V26.8802H86.8935ZM93.4678 26.8802V13.3113H100.414C102.199 13.3113 103.532 13.6408 104.411 14.2999C105.291 14.9461 105.731 15.7989 105.731 16.8586C105.731 17.5564 105.543 18.1703 105.168 18.7001C104.805 19.217 104.288 19.6306 103.616 19.9407C102.956 20.2379 102.167 20.3865 101.249 20.3865L101.636 19.456C102.593 19.456 103.428 19.6047 104.14 19.9019C104.85 20.1862 105.4 20.6062 105.789 21.1619C106.19 21.7046 106.39 22.3702 106.39 23.1584C106.39 24.3344 105.911 25.2519 104.954 25.911C104.01 26.5571 102.626 26.8802 100.803 26.8802H93.4678ZM97.2709 24.1082H100.492C101.151 24.1082 101.649 23.9984 101.985 23.7787C102.335 23.5462 102.51 23.1972 102.51 22.732C102.51 22.2668 102.335 21.9243 101.985 21.7046C101.649 21.472 101.151 21.3557 100.492 21.3557H96.9994V18.7001H99.9101C100.556 18.7001 101.041 18.5903 101.365 18.3706C101.688 18.1509 101.85 17.8214 101.85 17.382C101.85 16.9426 101.688 16.6196 101.365 16.4128C101.041 16.1932 100.556 16.0833 99.9101 16.0833H97.2709V24.1082ZM111.911 18.5644H118.217V21.4332H111.911V18.5644ZM112.182 23.9144H119.284V26.8802H108.379V13.3113H119.031V16.2771H112.182V23.9144ZM124.306 26.8802V16.3546H120.135V13.3113H132.301V16.3546H128.148V26.8802H124.306ZM131.419 26.8802L137.415 13.3113H141.198L147.213 26.8802H143.216L138.521 15.1916H140.034L135.338 26.8802H131.419ZM134.699 24.244L135.688 21.4139H142.324L143.313 24.244H134.699Z" fill="#4E44B1"/>
</g>
<defs>
<clipPath id="clip0_111_15929">
<rect width="146.486" height="40" fill="white" transform="translate(0.75676)"/>
</clipPath>
</defs>
</svg>
