<svg width="147" height="40" viewBox="0 0 147 40" fill="none" xmlns="http://www.w3.org/2000/svg">
<g clip-path="url(#clip0_107_243)">
<path d="M68.947 18.823L36.9414 0.182846C36.7407 0.0646194 36.5123 0.00154537 36.2793 2.80377e-05C36.0464 -0.00148929 35.8171 0.0586035 35.6149 0.174206L2.81108 18.8178C2.62587 18.9221 2.46854 19.0694 2.35247 19.2473C2.23641 19.4252 2.16502 19.6285 2.14437 19.8398H2.09335V27.7984C1.41932 28.0413 0.851875 28.5127 0.48975 29.1304C0.127625 29.7482 -0.00625511 30.4732 0.111404 31.1794C0.229063 31.8855 0.590814 32.5281 1.13371 32.9953C1.67661 33.4625 2.36629 33.7248 3.08274 33.7365C3.7992 33.7482 4.49708 33.5085 5.05495 33.0593C5.61282 32.61 5.99537 31.9795 6.13603 31.2776C6.27669 30.5756 6.16657 29.8467 5.82482 29.2174C5.48306 28.5882 4.93132 28.0986 4.26557 27.8338V21.959L19.7557 30.7461V34.6778C19.7546 34.8956 19.7979 35.1114 19.8828 35.312C19.9676 35.5127 20.0924 35.694 20.2494 35.845C22.0723 38.8575 29.9163 39.8303 35.333 39.9314C35.4671 39.9314 35.5994 39.9375 35.7317 39.9375C35.864 39.9375 35.9747 39.9375 36.0949 39.9375C36.1614 39.9375 36.2272 39.9375 36.292 39.9375C41.7546 39.9375 50.6085 39.0139 52.3995 35.7267C52.6505 35.4322 52.7879 35.0578 52.7869 34.6709V30.5215L68.9454 21.1219C69.1462 21.0047 69.313 20.8368 69.4288 20.6352C69.5446 20.4334 69.6056 20.205 69.6056 19.9724C69.6056 19.74 69.5446 19.5115 69.4288 19.3098C69.313 19.1082 69.1462 18.9403 68.9454 18.823H68.947ZM46.3204 36.3003C43.6068 36.9992 40.0458 37.3863 36.2963 37.3863C36.2237 37.3863 36.1519 37.3863 36.0802 37.3863C36.0447 37.3863 36.0084 37.3863 35.9729 37.3863H35.9652C35.8657 37.3863 35.7689 37.3863 35.6694 37.3819C35.5942 37.3819 35.5181 37.3819 35.442 37.3819C32.0073 37.3292 28.7783 36.95 26.2758 36.3038C23.353 35.5478 22.5185 34.7003 22.4286 34.4809C22.4562 34.4126 22.5531 34.2865 22.7615 34.1215C23.2284 33.7482 24.2514 33.1806 26.2758 32.6528C28.9893 31.953 32.5503 31.5668 36.3007 31.5668C40.051 31.5668 43.6112 31.953 46.3247 32.6528C48.3041 33.166 49.3279 33.7197 49.8079 34.093C50.0353 34.2657 50.1425 34.4057 50.1693 34.4774C50.0733 34.6968 49.2371 35.5444 46.3204 36.3003ZM36.2894 29.0113C32.041 29.0113 25.7457 29.5686 22.311 31.3647V22.1811C22.5055 21.9107 23.5337 21.1902 26.434 20.5621C29.1355 19.9772 32.629 19.6549 36.2695 19.6549C39.9101 19.6549 43.4019 19.9772 46.1033 20.5621C49.0027 21.1902 50.0344 21.9107 50.2264 22.1811V31.3387C46.7864 29.5651 40.5266 29.0113 36.2894 29.0113ZM52.7843 27.4433V22.0999C52.7843 17.2394 37.9601 17.0994 36.2678 17.0994C34.5755 17.0994 19.7513 17.2394 19.7513 22.0999V27.686L6.16021 19.972L36.2626 2.86621L65.6308 19.972L52.7843 27.4433Z" fill="white"/>
<path d="M78.4175 27.1516C77.3051 27.1516 76.2315 27.0159 75.1967 26.7446C74.1749 26.4603 73.3406 26.0984 72.6938 25.659L73.955 22.829C74.5629 23.2166 75.2613 23.5397 76.0504 23.7981C76.8524 24.0437 77.6478 24.1664 78.4368 24.1664C78.9672 24.1664 79.394 24.1212 79.7174 24.0308C80.0407 23.9274 80.2736 23.7981 80.4159 23.6431C80.5711 23.4751 80.6486 23.2812 80.6486 23.0616C80.6486 22.7514 80.5064 22.5059 80.2218 22.325C79.9373 22.1441 79.5687 21.9955 79.1159 21.8792C78.6632 21.7629 78.1587 21.6465 77.6025 21.5302C77.0593 21.4139 76.5096 21.2654 75.9534 21.0844C75.4102 20.9035 74.9122 20.6709 74.4594 20.3866C74.0067 20.0894 73.6381 19.7081 73.3535 19.2429C73.069 18.7648 72.9266 18.1638 72.9266 17.4402C72.9266 16.626 73.1465 15.8895 73.5863 15.2304C74.039 14.5714 74.7116 14.0415 75.6041 13.6409C76.4966 13.2403 77.609 13.04 78.9413 13.04C79.8338 13.04 80.7069 13.1435 81.5606 13.3502C82.4272 13.5441 83.1969 13.8348 83.8695 14.2225L82.6859 17.0719C82.0391 16.723 81.3989 16.4646 80.7651 16.2965C80.1313 16.1156 79.5169 16.0252 78.9219 16.0252C78.3916 16.0252 77.9648 16.0833 77.6414 16.1996C77.318 16.303 77.0852 16.4451 76.9429 16.626C76.8006 16.807 76.7295 17.0138 76.7295 17.2463C76.7295 17.5436 76.8653 17.7827 77.1369 17.9636C77.4215 18.1316 77.7901 18.2737 78.2429 18.39C78.7084 18.4934 79.2129 18.6032 79.7562 18.7195C80.3124 18.8359 80.8622 18.9845 81.4054 19.1654C81.9616 19.3333 82.466 19.566 82.9188 19.8632C83.3714 20.1475 83.7336 20.5288 84.0052 21.0069C84.2898 21.4721 84.4321 22.0601 84.4321 22.7708C84.4321 23.5591 84.2057 24.2892 83.7531 24.9612C83.3133 25.6203 82.6471 26.1501 81.7547 26.5507C80.875 26.9513 79.7626 27.1516 78.4175 27.1516ZM86.2067 26.8802V13.3114H90.0484V26.8802H86.2067ZM92.781 26.8802V13.3114H99.7274C101.512 13.3114 102.845 13.6409 103.724 14.3C104.604 14.9461 105.044 15.799 105.044 16.8587C105.044 17.5565 104.856 18.1703 104.481 18.7002C104.119 19.2171 103.601 19.6306 102.929 19.9408C102.269 20.238 101.48 20.3866 100.562 20.3866L100.949 19.4561C101.907 19.4561 102.741 19.6048 103.453 19.902C104.164 20.1863 104.714 20.6063 105.102 21.1619C105.503 21.7047 105.703 22.3702 105.703 23.1585C105.703 24.3345 105.225 25.252 104.267 25.9111C103.323 26.5572 101.939 26.8802 100.116 26.8802H92.781ZM96.5841 24.1083H99.8053C100.464 24.1083 100.962 23.9985 101.299 23.7788C101.648 23.5462 101.823 23.1973 101.823 22.732C101.823 22.2668 101.648 21.9244 101.299 21.7047C100.962 21.4721 100.464 21.3558 99.8053 21.3558H96.3126V18.7002H99.2233C99.8693 18.7002 100.354 18.5904 100.678 18.3707C101.001 18.151 101.163 17.8215 101.163 17.3821C101.163 16.9427 101.001 16.6196 100.678 16.4128C100.354 16.1932 99.8693 16.0833 99.2233 16.0833H96.5841V24.1083ZM111.224 18.5644H117.53V21.4333H111.224V18.5644ZM111.496 23.9145H118.597V26.8802H107.693V13.3114H118.344V16.2772H111.496V23.9145ZM123.619 26.8802V16.3547H119.449V13.3114H131.614V16.3547H127.461V26.8802H123.619ZM130.733 26.8802L136.728 13.3114H140.511L146.526 26.8802H142.529L137.834 15.1917H139.347L134.652 26.8802H130.733ZM134.012 24.244L135.001 21.4139H141.637L142.626 24.244H134.012Z" fill="white"/>
</g>
<defs>
<clipPath id="clip0_107_243">
<rect width="146.486" height="40" fill="white" transform="translate(0.0698242)"/>
</clipPath>
</defs>
</svg>
